SplineFontDB: 3.2
FontName: Incom-Beta
FullName: Incom Beta
FamilyName: Incom
Weight: Regular
Copyright: CC-0 Public Domain
UComments: "2020-6-28: Created with FontForge (http://fontforge.org)"
Version: 001.000
ItalicAngle: 0
UnderlinePosition: -100
UnderlineWidth: 50
Ascent: 800
Descent: 200
InvalidEm: 0
LayerCount: 2
Layer: 0 0 "Back" 1
Layer: 1 0 "Fore" 0
XUID: [1021 178 1911899458 19361]
StyleMap: 0x0000
FSType: 0
OS2Version: 0
OS2_WeightWidthSlopeOnly: 0
OS2_UseTypoMetrics: 1
CreationTime: 1593400167
ModificationTime: 1593820745
OS2TypoAscent: 0
OS2TypoAOffset: 1
OS2TypoDescent: 0
OS2TypoDOffset: 1
OS2TypoLinegap: 90
OS2WinAscent: 0
OS2WinAOffset: 1
OS2WinDescent: 0
OS2WinDOffset: 1
HheadAscent: 0
HheadAOffset: 1
HheadDescent: 0
HheadDOffset: 1
MarkAttachClasses: 1
DEI: 91125
LangName: 1033 "" "" "" "Incom:Beta" "" "" "" "" "" "Ender Smith, AurekFonts"
Encoding: ISO8859-1
UnicodeInterp: none
NameList: AGL For New Fonts
DisplaySize: -72
AntiAlias: 1
FitToEm: 0
WinInfo: 0 25 10
BeginPrivate: 0
EndPrivate
BeginChars: 257 78

StartChar: A
Encoding: 65 65 0
Width: 925
Flags: W
HStem: 0 21G<80 290.5 634.5 845> 0 21G<80 290.5 634.5 845> 700 20G<364.375 560.625> 700 20G<364.375 560.625>
LayerCount: 2
Fore
SplineSet
552.5 720 m 5xa0
 845 0 l 5
 642.5 0 l 5
 462.5 450 l 5
 282.5 0 l 5
 80 0 l 5
 372.5 720 l 5
 552.5 720 l 5xa0
EndSplineSet
Validated: 524289
EndChar

StartChar: B
Encoding: 66 66 1
Width: 610
Flags: W
HStem: 0 67.5<80 305> 652.5 67.5<80 305>
VStem: 305 225<90 180 540 630>
LayerCount: 2
Fore
SplineSet
530 540 m 5
 305 540 l 5
 305 652.5 l 5
 80 652.5 l 5
 80 720 l 5
 440 720 l 5
 530 630 l 5
 530 540 l 5
80 0 m 5
 80 67.5 l 5
 305 67.5 l 5
 305 180 l 5
 530 180 l 5
 530 90 l 5
 440 0 l 5
 80 0 l 5
EndSplineSet
Validated: 524289
EndChar

StartChar: C
Encoding: 67 67 2
Width: 925
Flags: W
HStem: 0 67.5<305 620> 652.5 67.5<305 620>
VStem: 80 225<67.5 652.5> 620 225<90 180 540 630>
LayerCount: 2
Fore
SplineSet
80 720 m 5
 755 720 l 5
 845 630 l 5
 845 540 l 5
 620 540 l 5
 620 652.5 l 5
 305 652.5 l 5
 305 67.5 l 5
 620 67.5 l 5
 620 180 l 5
 845 180 l 5
 845 90 l 5
 755 0 l 5
 80 0 l 5
 80 720 l 5
EndSplineSet
Validated: 524289
EndChar

StartChar: D
Encoding: 68 68 3
Width: 925
Flags: W
HStem: 0 67.5<305 620> 652.5 67.5<305 620>
VStem: 80 225<90 630> 620 225<67.5 652.5>
LayerCount: 2
Fore
SplineSet
170 0 m 5
 80 90 l 5
 80 630 l 5
 170 720 l 5
 845 720 l 5
 845 0 l 5
 170 0 l 5
305 652.5 m 5
 305 67.5 l 5
 620 67.5 l 5
 620 652.5 l 5
 305 652.5 l 5
EndSplineSet
Validated: 524289
EndChar

StartChar: E
Encoding: 69 69 4
Width: 835
Flags: W
HStem: 0 67.5<125 530> 292.5 135<80 552.5> 652.5 67.5<125 530>
VStem: 530 225<90 180 540 630>
CounterMasks: 1 e0
LayerCount: 2
Fore
SplineSet
80 427.5 m 5
 552.5 427.5 l 5
 552.5 292.5 l 5
 80 292.5 l 5
 80 427.5 l 5
755 540 m 5
 530 540 l 5
 530 652.5 l 5
 125 652.5 l 5
 125 720 l 5
 665 720 l 5
 755 630 l 5
 755 540 l 5
125 0 m 5
 125 67.5 l 5
 530 67.5 l 5
 530 180 l 5
 755 180 l 5
 755 90 l 5
 665 0 l 5
 125 0 l 5
EndSplineSet
Validated: 524289
EndChar

StartChar: F
Encoding: 70 70 5
Width: 700
Flags: W
HStem: 0 21G<170 395> 0 21G<170 395> 337.5 67.5<80 170 395 620> 652.5 67.5<395 620>
VStem: 170 225<0 337.5 405 630>
LayerCount: 2
Fore
SplineSet
170 630 m 5xb8
 260 720 l 5
 620 720 l 5
 620 652.5 l 5
 395 652.5 l 5
 395 405 l 5
 620 405 l 5
 620 337.5 l 5
 395 337.5 l 5
 395 0 l 5
 170 0 l 5
 170 337.5 l 5
 80 337.5 l 5
 80 405 l 5
 170 405 l 5
 170 630 l 5xb8
EndSplineSet
Validated: 524289
EndChar

StartChar: G
Encoding: 71 71 6
Width: 925
Flags: W
HStem: 0 67.5<305 620> 427.5 67.5<305 620>
VStem: 620 225<90 405>
LayerCount: 2
Fore
SplineSet
845 405 m 5
 845 90 l 5
 755 0 l 5
 170 0 l 5
 80 90 l 5
 80 135 l 5
 305 135 l 5
 305 67.5 l 5
 620 67.5 l 5
 620 427.5 l 5
 305 427.5 l 5
 305 360 l 5
 80 360 l 5
 80 405 l 5
 170 495 l 5
 755 495 l 5
 845 405 l 5
EndSplineSet
Validated: 524289
EndChar

StartChar: H
Encoding: 72 72 7
Width: 1465
Flags: W
HStem: 0 67.5<305 620 845 1160> 652.5 67.5<305 620 845 1160>
VStem: 80 225<90 630> 620 225<67.5 652.5> 1160 225<90 630>
CounterMasks: 1 38
LayerCount: 2
Fore
SplineSet
170 0 m 5
 80 90 l 5
 80 630 l 5
 170 720 l 5
 1295 720 l 5
 1385 630 l 5
 1385 90 l 5
 1295 0 l 5
 170 0 l 5
305 652.5 m 5
 305 67.5 l 5
 620 67.5 l 5
 620 652.5 l 5
 305 652.5 l 5
1160 67.5 m 5
 1160 652.5 l 5
 845 652.5 l 5
 845 67.5 l 5
 1160 67.5 l 5
EndSplineSet
Validated: 524289
EndChar

StartChar: I
Encoding: 73 73 8
Width: 385
Flags: W
HStem: 0 21G<80 305> 0 21G<80 305> 700 20G<80 305> 700 20G<80 305>
VStem: 80 225<0 720>
LayerCount: 2
Fore
SplineSet
80 720 m 5xa8
 305 720 l 5
 305 0 l 5
 80 0 l 5
 80 720 l 5xa8
EndSplineSet
Validated: 1
EndChar

StartChar: J
Encoding: 74 74 9
Width: 610
Flags: W
HStem: 0 67.5<305 530> 700 20G<80 305> 700 20G<80 305>
VStem: 80 225<90 720>
LayerCount: 2
Fore
SplineSet
80 720 m 5xd0
 305 720 l 5
 305 67.5 l 5
 530 67.5 l 5
 530 0 l 5
 170 0 l 5
 80 90 l 5
 80 720 l 5xd0
EndSplineSet
Validated: 524289
EndChar

StartChar: K
Encoding: 75 75 10
Width: 925
Flags: W
HStem: 0 21G<80 305 597.5 822.5> 0 21G<80 305 597.5 822.5> 337.5 67.5<305 597.5> 585 135<597.5 845>
VStem: 80 225<0 337.5 405 720> 597.5 225<0 315>
LayerCount: 2
Fore
SplineSet
80 720 m 5xbc
 305 720 l 5
 305 405 l 5
 732.5 405 l 5
 822.5 315 l 5
 822.5 0 l 5
 597.5 0 l 5
 597.5 337.5 l 5
 305 337.5 l 5
 305 0 l 5
 80 0 l 5
 80 720 l 5xbc
597.5 720 m 5
 845 720 l 5
 845 585 l 5
 597.5 585 l 5
 597.5 720 l 5
EndSplineSet
Validated: 524289
EndChar

StartChar: L
Encoding: 76 76 11
Width: 700
Flags: W
HStem: 0 67.5<80 305 530 620> 652.5 67.5<80 305>
VStem: 305 225<67.5 630>
LayerCount: 2
Fore
SplineSet
530 630 m 5
 530 67.5 l 5
 620 67.5 l 5
 620 0 l 5
 80 0 l 5
 80 67.5 l 5
 305 67.5 l 5
 305 652.5 l 5
 80 652.5 l 5
 80 720 l 5
 440 720 l 5
 530 630 l 5
EndSplineSet
Validated: 524289
EndChar

StartChar: M
Encoding: 77 77 12
Width: 1577
Flags: W
HStem: 0 67.5<980 1272.5> 652.5 67.5<305 755>
VStem: 80 225<0 652.5> 755 225<67.5 652.5> 1272.5 225<67.5 720>
LayerCount: 2
Fore
SplineSet
80 720 m 5
 980 720 l 5
 980 67.5 l 5
 1272.5 67.5 l 5
 1272.5 720 l 5
 1497.5 720 l 5
 1497.5 0 l 5
 755 0 l 5
 755 652.5 l 5
 305 652.5 l 5
 305 0 l 5
 80 0 l 5
 80 720 l 5
EndSplineSet
Validated: 524289
EndChar

StartChar: N
Encoding: 78 78 13
Width: 1420
Flags: W
HStem: 0 67.5<305 597.5> 652.5 67.5<822.5 1115>
VStem: 80 225<67.5 720> 597.5 225<67.5 652.5> 1115 225<0 652.5>
CounterMasks: 1 38
LayerCount: 2
Fore
SplineSet
1340 720 m 5
 1340 0 l 5
 1115 0 l 5
 1115 652.5 l 5
 822.5 652.5 l 5
 822.5 0 l 5
 80 0 l 5
 80 720 l 5
 305 720 l 5
 305 67.5 l 5
 597.5 67.5 l 5
 597.5 720 l 5
 1340 720 l 5
EndSplineSet
Validated: 524289
EndChar

StartChar: O
Encoding: 79 79 14
Width: 925
Flags: W
HStem: 0 67.5<305 620> 652.5 67.5<305 620>
VStem: 80 225<90 630> 620 225<90 630>
LayerCount: 2
Fore
SplineSet
755 0 m 5
 170 0 l 5
 80 90 l 5
 80 630 l 5
 170 720 l 5
 755 720 l 5
 845 630 l 5
 845 90 l 5
 755 0 l 5
305 652.5 m 5
 305 67.5 l 5
 620 67.5 l 5
 620 652.5 l 5
 305 652.5 l 5
EndSplineSet
Validated: 524289
EndChar

StartChar: P
Encoding: 80 80 15
Width: 902
Flags: W
HStem: 0 21G<80 305> 0 21G<80 305> 652.5 67.5<305 597.5>
VStem: 80 225<0 630> 597.5 225<360 652.5>
LayerCount: 2
Fore
SplineSet
80 630 m 5xb8
 170 720 l 5
 822.5 720 l 5
 822.5 360 l 5
 597.5 360 l 5
 597.5 652.5 l 5
 305 652.5 l 5
 305 0 l 5
 80 0 l 5
 80 630 l 5xb8
EndSplineSet
Validated: 524289
EndChar

StartChar: Q
Encoding: 81 81 16
Width: 992
Flags: W
HStem: 0 90<845 912.5> 0 67.5<305 620> 652.5 67.5<305 620>
VStem: 80 225<90 630> 620 225<90 630>
LayerCount: 2
Fore
SplineSet
912.5 90 m 5xb8
 912.5 0 l 5xb8
 170 0 l 5x78
 80 90 l 5
 80 630 l 5
 170 720 l 5
 755 720 l 5
 845 630 l 5
 845 90 l 5
 912.5 90 l 5xb8
305 652.5 m 5
 305 67.5 l 5
 620 67.5 l 5x78
 620 652.5 l 5
 305 652.5 l 5
EndSplineSet
Validated: 524289
EndChar

StartChar: R
Encoding: 82 82 17
Width: 610
Flags: W
HStem: 0 21G<80 305> 0 21G<80 305> 652.5 67.5<305 530>
VStem: 80 225<0 630>
LayerCount: 2
Fore
SplineSet
80 0 m 5xb0
 80 630 l 5
 170 720 l 5
 530 720 l 5
 530 652.5 l 5
 305 652.5 l 5
 305 0 l 5
 80 0 l 5xb0
EndSplineSet
Validated: 524289
EndChar

StartChar: S
Encoding: 83 83 18
Width: 925
Flags: W
HStem: 0 67.5<305 620> 652.5 67.5<305 620>
VStem: 80 225<90 180 540 630> 620 225<90 630>
LayerCount: 2
Fore
SplineSet
845 630 m 5
 845 90 l 5
 755 0 l 5
 170 0 l 5
 80 90 l 5
 80 180 l 5
 305 180 l 5
 305 67.5 l 5
 620 67.5 l 5
 620 652.5 l 5
 305 652.5 l 5
 305 540 l 5
 80 540 l 5
 80 630 l 5
 170 720 l 5
 755 720 l 5
 845 630 l 5
EndSplineSet
Validated: 524289
EndChar

StartChar: T
Encoding: 84 84 19
Width: 880
Flags: W
HStem: 0 21G<575 800> 0 21G<575 800> 652.5 67.5<80 575>
VStem: 575 225<0 652.5>
LayerCount: 2
Fore
SplineSet
800 720 m 5xb0
 800 0 l 5
 575 0 l 5
 575 652.5 l 5
 80 652.5 l 5
 80 720 l 5
 800 720 l 5xb0
EndSplineSet
Validated: 524289
EndChar

StartChar: U
Encoding: 85 85 20
Width: 902
Flags: W
HStem: 0 67.5<305 597.5> 700 20G<80 305 597.5 822.5> 700 20G<80 305 597.5 822.5>
VStem: 80 225<67.5 720> 597.5 225<67.5 720>
LayerCount: 2
Fore
SplineSet
822.5 720 m 5xd8
 822.5 0 l 5
 80 0 l 5
 80 720 l 5
 305 720 l 5
 305 67.5 l 5
 597.5 67.5 l 5
 597.5 720 l 5
 822.5 720 l 5xd8
EndSplineSet
Validated: 524289
EndChar

StartChar: V
Encoding: 86 86 21
Width: 925
Flags: W
HStem: 0 21G<364.375 560.625> 0 21G<364.375 560.625> 700 20G<80 290.5 634.5 845> 700 20G<80 290.5 634.5 845>
LayerCount: 2
Fore
SplineSet
372.5 0 m 5xa0
 80 720 l 5
 282.5 720 l 5
 462.5 270 l 5
 642.5 720 l 5
 845 720 l 5
 552.5 0 l 5
 372.5 0 l 5xa0
EndSplineSet
Validated: 524289
EndChar

StartChar: W
Encoding: 87 87 22
Width: 1217
Flags: W
HStem: 0 21G<80 290.5 634.5 853.125> 0 21G<80 290.5 634.5 853.125> 700 20G<364.375 583 927 1137.5> 700 20G<364.375 583 927 1137.5>
LayerCount: 2
Fore
SplineSet
575 720 m 5xa0
 755 270 l 5
 935 720 l 5
 1137.5 720 l 5
 845 0 l 5
 642.5 0 l 5
 462.5 450 l 5
 282.5 0 l 5
 80 0 l 5
 372.5 720 l 5
 575 720 l 5xa0
EndSplineSet
Validated: 524289
EndChar

StartChar: X
Encoding: 88 88 23
Width: 700
Flags: W
HStem: 0 21G<237.5 333> 0 21G<237.5 333> 700 20G<367 462.5> 700 20G<367 462.5>
VStem: 237.5 225<225 495>
LayerCount: 2
Fore
SplineSet
395 720 m 5xa8
 462.5 720 l 5
 462.5 225 l 5
 620 225 l 5
 305 0 l 5
 237.5 0 l 5
 237.5 495 l 5
 80 495 l 5
 395 720 l 5xa8
EndSplineSet
Validated: 524289
EndChar

StartChar: Y
Encoding: 89 89 24
Width: 1532
Flags: W
HStem: 0 67.5<867.5 1385> 652.5 67.5<305 1160>
VStem: 80 225<0 630>
LayerCount: 2
Fore
SplineSet
80 630 m 5
 170 720 l 5
 1452.5 720 l 5
 1452.5 607.5 l 5
 867.5 112.5 l 5
 867.5 67.5 l 5
 1385 67.5 l 5
 1385 0 l 5
 597.5 0 l 5
 597.5 112.5 l 5
 1160 607.5 l 5
 1160 652.5 l 5
 305 652.5 l 5
 305 0 l 5
 80 0 l 5
 80 630 l 5
EndSplineSet
Validated: 524289
EndChar

StartChar: Z
Encoding: 90 90 25
Width: 1420
Flags: W
HStem: 0 67.5<800 1025> 652.5 67.5<817.58 1025 1250 1340>
VStem: 1025 225<90 652.5>
LayerCount: 2
Fore
SplineSet
80 720 m 5
 282.5 720 l 5
 462.5 270 l 5
 642.5 720 l 5
 1340 720 l 5
 1340 652.5 l 5
 1250 652.5 l 5
 1250 90 l 5
 1160 0 l 5
 800 0 l 5
 800 67.5 l 5
 1025 67.5 l 5
 1025 652.5 l 5
 817.580078125 652.5 l 5
 552.5 0 l 5
 372.5 0 l 5
 80 720 l 5
EndSplineSet
Validated: 524289
EndChar

StartChar: a
Encoding: 97 97 27
Width: 925
Flags: W
HStem: 0 21G<364.375 560.625> 0 21G<364.375 560.625> 700 20G<80 290.5 634.5 845> 700 20G<80 290.5 634.5 845>
LayerCount: 2
Fore
SplineSet
552.5 0 m 5xa0
 372.5 0 l 5
 80 720 l 5
 282.5 720 l 5
 462.5 270 l 5
 642.5 720 l 5
 845 720 l 5
 552.5 0 l 5xa0
EndSplineSet
Validated: 524289
EndChar

StartChar: b
Encoding: 98 98 28
Width: 610
Flags: W
HStem: 0 67.5<305 530> 652.5 67.5<305 530>
VStem: 80 225<90 180 540 630>
LayerCount: 2
Fore
SplineSet
80 540 m 5
 80 630 l 5
 170 720 l 5
 530 720 l 5
 530 652.5 l 5
 305 652.5 l 5
 305 540 l 5
 80 540 l 5
530 0 m 5
 170 0 l 5
 80 90 l 5
 80 180 l 5
 305 180 l 5
 305 67.5 l 5
 530 67.5 l 5
 530 0 l 5
EndSplineSet
Validated: 524289
EndChar

StartChar: c
Encoding: 99 99 29
Width: 925
Flags: W
HStem: 0 67.5<305 620> 652.5 67.5<305 620>
VStem: 80 225<90 180 540 630> 620 225<67.5 652.5>
LayerCount: 2
Fore
SplineSet
845 720 m 5
 845 0 l 5
 170 0 l 5
 80 90 l 5
 80 180 l 5
 305 180 l 5
 305 67.5 l 5
 620 67.5 l 5
 620 652.5 l 5
 305 652.5 l 5
 305 540 l 5
 80 540 l 5
 80 630 l 5
 170 720 l 5
 845 720 l 5
EndSplineSet
Validated: 524289
EndChar

StartChar: d
Encoding: 100 100 30
Width: 925
Flags: W
HStem: 0 67.5<305 620> 652.5 67.5<305 620>
VStem: 80 225<67.5 652.5> 620 225<90 630>
LayerCount: 2
Fore
SplineSet
755 0 m 5
 80 0 l 5
 80 720 l 5
 755 720 l 5
 845 630 l 5
 845 90 l 5
 755 0 l 5
620 652.5 m 5
 305 652.5 l 5
 305 67.5 l 5
 620 67.5 l 5
 620 652.5 l 5
EndSplineSet
Validated: 524289
EndChar

StartChar: e
Encoding: 101 101 31
Width: 835
Flags: W
HStem: 0 67.5<305 710> 292.5 135<282.5 755> 652.5 67.5<305 710>
VStem: 80 225<90 180 540 630>
CounterMasks: 1 e0
LayerCount: 2
Fore
SplineSet
755 427.5 m 5
 755 292.5 l 5
 282.5 292.5 l 5
 282.5 427.5 l 5
 755 427.5 l 5
80 540 m 5
 80 630 l 5
 170 720 l 5
 710 720 l 5
 710 652.5 l 5
 305 652.5 l 5
 305 540 l 5
 80 540 l 5
710 0 m 5
 170 0 l 5
 80 90 l 5
 80 180 l 5
 305 180 l 5
 305 67.5 l 5
 710 67.5 l 5
 710 0 l 5
EndSplineSet
Validated: 524289
EndChar

StartChar: f
Encoding: 102 102 32
Width: 700
Flags: W
HStem: 0 21G<305 530> 0 21G<305 530> 337.5 67.5<80 305 530 620> 652.5 67.5<80 305>
VStem: 305 225<0 337.5 405 630>
LayerCount: 2
Fore
SplineSet
530 630 m 5xb8
 530 405 l 5
 620 405 l 5
 620 337.5 l 5
 530 337.5 l 5
 530 0 l 5
 305 0 l 5
 305 337.5 l 5
 80 337.5 l 5
 80 405 l 5
 305 405 l 5
 305 652.5 l 5
 80 652.5 l 5
 80 720 l 5
 440 720 l 5
 530 630 l 5xb8
EndSplineSet
Validated: 524289
EndChar

StartChar: g
Encoding: 103 103 33
Width: 925
Flags: W
HStem: 0 67.5<305 620> 427.5 67.5<305 620>
VStem: 80 225<90 405>
LayerCount: 2
Fore
SplineSet
80 405 m 5
 170 495 l 5
 755 495 l 5
 845 405 l 5
 845 360 l 5
 620 360 l 5
 620 427.5 l 5
 305 427.5 l 5
 305 67.5 l 5
 620 67.5 l 5
 620 135 l 5
 845 135 l 5
 845 90 l 5
 755 0 l 5
 170 0 l 5
 80 90 l 5
 80 405 l 5
EndSplineSet
Validated: 524289
EndChar

StartChar: h
Encoding: 104 104 34
Width: 1465
Flags: W
HStem: 0 67.5<305 620 845 1160> 652.5 67.5<305 620 845 1160>
VStem: 80 225<90 630> 620 225<67.5 652.5> 1160 225<90 630>
CounterMasks: 1 38
LayerCount: 2
Fore
SplineSet
170 0 m 5
 80 90 l 5
 80 630 l 5
 170 720 l 5
 1295 720 l 5
 1385 630 l 5
 1385 90 l 5
 1295 0 l 5
 170 0 l 5
305 652.5 m 5
 305 67.5 l 5
 620 67.5 l 5
 620 652.5 l 5
 305 652.5 l 5
1160 67.5 m 5
 1160 652.5 l 5
 845 652.5 l 5
 845 67.5 l 5
 1160 67.5 l 5
EndSplineSet
Validated: 524289
EndChar

StartChar: i
Encoding: 105 105 35
Width: 385
Flags: W
HStem: 0 21G<80 305> 0 21G<80 305> 700 20G<80 305> 700 20G<80 305>
VStem: 80 225<0 720>
LayerCount: 2
Fore
SplineSet
80 720 m 5xa8
 305 720 l 5
 305 0 l 5
 80 0 l 5
 80 720 l 5xa8
EndSplineSet
Validated: 1
EndChar

StartChar: j
Encoding: 106 106 36
Width: 610
Flags: W
HStem: 0 67.5<80 305> 700 20G<305 530> 700 20G<305 530>
VStem: 305 225<90 720>
LayerCount: 2
Fore
SplineSet
530 720 m 5xd0
 530 90 l 5
 440 0 l 5
 80 0 l 5
 80 67.5 l 5
 305 67.5 l 5
 305 720 l 5
 530 720 l 5xd0
EndSplineSet
Validated: 524289
EndChar

StartChar: k
Encoding: 107 107 37
Width: 925
Flags: W
HStem: 0 21G<102.5 327.5 620 845> 0 21G<102.5 327.5 620 845> 337.5 67.5<327.5 620> 585 135<80 327.5>
VStem: 102.5 225<0 315> 620 225<0 337.5 405 720>
LayerCount: 2
Fore
SplineSet
845 720 m 5xbc
 845 0 l 5
 620 0 l 5
 620 337.5 l 5
 327.5 337.5 l 5
 327.5 0 l 5
 102.5 0 l 5
 102.5 315 l 5
 192.5 405 l 5
 620 405 l 5
 620 720 l 5
 845 720 l 5xbc
327.5 720 m 5
 327.5 585 l 5
 80 585 l 5
 80 720 l 5
 327.5 720 l 5
EndSplineSet
Validated: 524289
EndChar

StartChar: l
Encoding: 108 108 38
Width: 700
Flags: W
HStem: 0 67.5<80 170 395 620> 652.5 67.5<395 620>
VStem: 170 225<67.5 630>
LayerCount: 2
Fore
SplineSet
170 630 m 5
 260 720 l 5
 620 720 l 5
 620 652.5 l 5
 395 652.5 l 5
 395 67.5 l 5
 620 67.5 l 5
 620 0 l 5
 80 0 l 5
 80 67.5 l 5
 170 67.5 l 5
 170 630 l 5
EndSplineSet
Validated: 524289
EndChar

StartChar: m
Encoding: 109 109 39
Width: 1577
Flags: W
HStem: 0 67.5<305 597.5> 652.5 67.5<822.5 1272.5>
VStem: 80 225<67.5 720> 597.5 225<67.5 652.5> 1272.5 225<0 652.5>
LayerCount: 2
Fore
SplineSet
1497.5 720 m 5
 1497.5 0 l 5
 1272.5 0 l 5
 1272.5 652.5 l 5
 822.5 652.5 l 5
 822.5 0 l 5
 80 0 l 5
 80 720 l 5
 305 720 l 5
 305 67.5 l 5
 597.5 67.5 l 5
 597.5 720 l 5
 1497.5 720 l 5
EndSplineSet
Validated: 524289
EndChar

StartChar: n
Encoding: 110 110 40
Width: 1420
Flags: W
HStem: 0 67.5<822.5 1115> 652.5 67.5<305 597.5>
VStem: 80 225<0 652.5> 597.5 225<67.5 652.5> 1115 225<67.5 720>
CounterMasks: 1 38
LayerCount: 2
Fore
SplineSet
80 720 m 5
 822.5 720 l 5
 822.5 67.5 l 5
 1115 67.5 l 5
 1115 720 l 5
 1340 720 l 5
 1340 0 l 5
 597.5 0 l 5
 597.5 652.5 l 5
 305 652.5 l 5
 305 0 l 5
 80 0 l 5
 80 720 l 5
EndSplineSet
Validated: 524289
EndChar

StartChar: o
Encoding: 111 111 41
Width: 925
Flags: W
HStem: 0 67.5<305 620> 652.5 67.5<305 620>
VStem: 80 225<90 630> 620 225<90 630>
LayerCount: 2
Fore
SplineSet
755 0 m 5
 170 0 l 5
 80 90 l 5
 80 630 l 5
 170 720 l 5
 755 720 l 5
 845 630 l 5
 845 90 l 5
 755 0 l 5
305 652.5 m 5
 305 67.5 l 5
 620 67.5 l 5
 620 652.5 l 5
 305 652.5 l 5
EndSplineSet
Validated: 524289
EndChar

StartChar: p
Encoding: 112 112 42
Width: 902
Flags: W
HStem: 0 21G<597.5 822.5> 0 21G<597.5 822.5> 652.5 67.5<305 597.5>
VStem: 80 225<360 652.5> 597.5 225<0 630>
LayerCount: 2
Fore
SplineSet
822.5 630 m 5xb8
 822.5 0 l 5
 597.5 0 l 5
 597.5 652.5 l 5
 305 652.5 l 5
 305 360 l 5
 80 360 l 5
 80 720 l 5
 732.5 720 l 5
 822.5 630 l 5xb8
EndSplineSet
Validated: 524289
EndChar

StartChar: q
Encoding: 113 113 43
Width: 992
Flags: W
HStem: 0 67.5<305 620> 630 90<845 912.5> 652.5 67.5<305 620>
VStem: 80 225<90 630> 620 225<90 630>
LayerCount: 2
Fore
SplineSet
912.5 630 m 5xd8
 845 630 l 5
 845 90 l 5
 755 0 l 5
 170 0 l 5
 80 90 l 5
 80 630 l 5xd8
 170 720 l 5xb8
 912.5 720 l 5
 912.5 630 l 5xd8
305 67.5 m 5
 620 67.5 l 5
 620 652.5 l 5
 305 652.5 l 5xb8
 305 67.5 l 5
EndSplineSet
Validated: 524289
EndChar

StartChar: r
Encoding: 114 114 44
Width: 610
Flags: W
HStem: 0 21G<305 530> 0 21G<305 530> 652.5 67.5<80 305>
VStem: 305 225<0 630>
LayerCount: 2
Fore
SplineSet
530 0 m 5xb0
 305 0 l 5
 305 652.5 l 5
 80 652.5 l 5
 80 720 l 5
 440 720 l 5
 530 630 l 5
 530 0 l 5xb0
EndSplineSet
Validated: 524289
EndChar

StartChar: s
Encoding: 115 115 45
Width: 925
Flags: W
HStem: 0 67.5<305 620> 652.5 67.5<305 620>
VStem: 80 225<90 630> 620 225<90 180 540 630>
LayerCount: 2
Fore
SplineSet
80 630 m 5
 170 720 l 5
 755 720 l 5
 845 630 l 5
 845 540 l 5
 620 540 l 5
 620 652.5 l 5
 305 652.5 l 5
 305 67.5 l 5
 620 67.5 l 5
 620 180 l 5
 845 180 l 5
 845 90 l 5
 755 0 l 5
 170 0 l 5
 80 90 l 5
 80 630 l 5
EndSplineSet
Validated: 524289
EndChar

StartChar: t
Encoding: 116 116 46
Width: 880
Flags: W
HStem: 0 21G<80 305> 0 21G<80 305> 652.5 67.5<305 800>
VStem: 80 225<0 652.5>
LayerCount: 2
Fore
SplineSet
80 720 m 5xb0
 800 720 l 5
 800 652.5 l 5
 305 652.5 l 5
 305 0 l 5
 80 0 l 5
 80 720 l 5xb0
EndSplineSet
Validated: 524289
EndChar

StartChar: u
Encoding: 117 117 47
Width: 902
Flags: W
HStem: 0 67.5<305 597.5> 700 20G<80 305 597.5 822.5> 700 20G<80 305 597.5 822.5>
VStem: 80 225<67.5 720> 597.5 225<67.5 720>
LayerCount: 2
Fore
SplineSet
822.5 720 m 5xd8
 822.5 0 l 5
 80 0 l 5
 80 720 l 5
 305 720 l 5
 305 67.5 l 5
 597.5 67.5 l 5
 597.5 720 l 5
 822.5 720 l 5xd8
EndSplineSet
Validated: 524289
EndChar

StartChar: v
Encoding: 118 118 48
Width: 925
Flags: W
HStem: 0 21G<80 290.5 634.5 845> 0 21G<80 290.5 634.5 845> 700 20G<364.375 560.625> 700 20G<364.375 560.625>
LayerCount: 2
Fore
SplineSet
372.5 720 m 5xa0
 552.5 720 l 5
 845 0 l 5
 642.5 0 l 5
 462.5 450 l 5
 282.5 0 l 5
 80 0 l 5
 372.5 720 l 5xa0
EndSplineSet
Validated: 524289
EndChar

StartChar: w
Encoding: 119 119 49
Width: 1217
Flags: W
HStem: 0 21G<364.375 583 927 1137.5> 0 21G<364.375 583 927 1137.5> 700 20G<80 290.5 634.5 853.125> 700 20G<80 290.5 634.5 853.125>
LayerCount: 2
Fore
SplineSet
575 0 m 5xa0
 372.5 0 l 5
 80 720 l 5
 282.5 720 l 5
 462.5 270 l 5
 642.5 720 l 5
 845 720 l 5
 1137.5 0 l 5
 935 0 l 5
 755 450 l 5
 575 0 l 5xa0
EndSplineSet
Validated: 524289
EndChar

StartChar: x
Encoding: 120 120 50
Width: 700
Flags: W
HStem: 0 21G<367 462.5> 0 21G<367 462.5> 700 20G<237.5 333> 700 20G<237.5 333>
VStem: 237.5 225<225 495>
LayerCount: 2
Fore
SplineSet
395 0 m 5xa8
 80 225 l 5
 237.5 225 l 5
 237.5 720 l 5
 305 720 l 5
 620 495 l 5
 462.5 495 l 5
 462.5 0 l 5
 395 0 l 5xa8
EndSplineSet
Validated: 524289
EndChar

StartChar: y
Encoding: 121 121 51
Width: 1532
Flags: W
HStem: 0 67.5<372.5 1227.5> 652.5 67.5<147.5 665>
VStem: 1227.5 225<90 720>
LayerCount: 2
Fore
SplineSet
1452.5 90 m 5
 1362.5 0 l 5
 80 0 l 5
 80 112.5 l 5
 665 607.5 l 5
 665 652.5 l 5
 147.5 652.5 l 5
 147.5 720 l 5
 935 720 l 5
 935 607.5 l 5
 372.5 112.5 l 5
 372.5 67.5 l 5
 1227.5 67.5 l 5
 1227.5 720 l 5
 1452.5 720 l 5
 1452.5 90 l 5
EndSplineSet
Validated: 524289
EndChar

StartChar: z
Encoding: 122 122 52
Width: 1420
Flags: W
HStem: 0 67.5<817.58 1025 1250 1340> 652.5 67.5<800 1025>
VStem: 1025 225<67.5 630>
LayerCount: 2
Fore
SplineSet
80 0 m 5
 372.5 720 l 5
 552.5 720 l 5
 817.580078125 67.5 l 5
 1025 67.5 l 5
 1025 652.5 l 5
 800 652.5 l 5
 800 720 l 5
 1160 720 l 5
 1250 630 l 5
 1250 67.5 l 5
 1340 67.5 l 5
 1340 0 l 5
 642.5 0 l 5
 462.5 450 l 5
 282.5 0 l 5
 80 0 l 5
EndSplineSet
Validated: 524289
EndChar

StartChar: exclam
Encoding: 33 33 53
Width: 1187
Flags: W
HStem: 0 67.5<80 480 705 1107> 652.5 67.5<80 480 705 1107>
VStem: 480 225<67.5 652.5>
LayerCount: 2
Fore
SplineSet
1107 67.5 m 5
 1107 0 l 5
 80 0 l 1
 80 67.5 l 1
 480 67.5 l 1
 480 652.5 l 1
 80 652.5 l 1
 80 720 l 1
 1107 720 l 5
 1107 652.5 l 5
 705 652.5 l 1
 705 67.5 l 1
 1107 67.5 l 5
EndSplineSet
Validated: 524289
EndChar

StartChar: hyphen
Encoding: 45 45 54
Width: 632
Flags: W
HStem: 292.5 135<80 552.5>
LayerCount: 2
Fore
SplineSet
80 427.5 m 1
 552.5 427.5 l 1
 552.5 292.5 l 1
 80 292.5 l 1
 80 427.5 l 1
EndSplineSet
Validated: 524289
EndChar

StartChar: colon
Encoding: 58 58 55
Width: 902
Flags: W
HStem: 0 21G<80 305> 0 21G<80 305> 180 67.5<305 822.5> 472.5 67.5<305 822.5> 700 20G<80 305> 700 20G<80 305>
VStem: 80 225<0 180 247.5 472.5 540 720>
LayerCount: 2
Fore
SplineSet
80 720 m 1xba
 305 720 l 1
 305 540 l 5
 822.5 540 l 5
 822.5 472.5 l 5
 305 472.5 l 5
 305 247.5 l 5
 822.5 247.5 l 5
 822.5 180 l 5
 305 180 l 5
 305 0 l 1
 80 0 l 1
 80 720 l 1xba
EndSplineSet
Validated: 524289
EndChar

StartChar: equal
Encoding: 61 61 57
Width: 517
Flags: W
HStem: 180 67.5<0 517> 472.5 67.5<0 517>
LayerCount: 2
Fore
SplineSet
517 540 m 5
 517 472.5 l 5
 0 472.5 l 1
 0 540 l 1
 517 540 l 5
517 247.5 m 5
 517 180 l 5
 0 180 l 1
 0 247.5 l 1
 517 247.5 l 5
EndSplineSet
Validated: 524289
EndChar

StartChar: at
Encoding: 64 64 58
Width: 965
Flags: W
HStem: -60 67.5<305 660> 190 77.5<305 660> 462.5 67.5<305 660> 712.5 67.5<305 660>
VStem: 80 225<30 190 267.5 462.5 530 690> 660 225<30 190 267.5 462.5 530 690>
LayerCount: 2
Fore
SplineSet
795 -60 m 5
 170 -60 l 1
 80 30 l 1
 80 690 l 1
 170 780 l 1
 795 780 l 5
 885 690 l 5
 885 30 l 5
 795 -60 l 5
660 7.5 m 5
 660 190 l 5
 305 190 l 1
 305 7.5 l 1
 660 7.5 l 5
660 712.5 m 5
 305 712.5 l 1
 305 530 l 1
 660 530 l 5
 660 712.5 l 5
660 267.5 m 5
 660 462.5 l 5
 305 462.5 l 1
 305 267.5 l 1
 660 267.5 l 5
EndSplineSet
Validated: 524289
EndChar

StartChar: period
Encoding: 46 46 59
Width: 252
Flags: W
HStem: 0 90<80 172.5>
VStem: 80 92.5<0 90>
LayerCount: 2
Fore
SplineSet
80 90 m 5
 172.5 90 l 5
 172.5 0 l 5
 80 0 l 5
 80 90 l 5
EndSplineSet
Validated: 524289
EndChar

StartChar: zero
Encoding: 48 48 61
Width: 927
Flags: W
HStem: 0 67.5<305 620> 652.5 67.5<305 620>
VStem: 82 223<67.5 652.5> 620 227<67.5 652.5>
LayerCount: 2
Fore
SplineSet
82 0 m 5
 80 720 l 1
 845 720 l 1
 847 0 l 5
 82 0 l 5
305 652.5 m 1
 305 67.5 l 1
 620 67.5 l 1
 620 652.5 l 1
 305 652.5 l 1
EndSplineSet
Validated: 524289
EndChar

StartChar: asterisk
Encoding: 42 42 63
Width: 432
Flags: W
HStem: 292.5 135<80 352.5>
VStem: 80 272.5<292.5 427.5>
LayerCount: 2
Fore
SplineSet
80 427.5 m 1
 352.5 427.5 l 5
 352.5 292.5 l 5
 80 292.5 l 1
 80 427.5 l 1
EndSplineSet
Validated: 524289
EndChar

StartChar: six
Encoding: 54 54 64
Width: 677
Flags: W
HStem: 0 67.5<305 530> 337.5 67.5<305 530> 700 20G<80 305> 700 20G<80 305>
VStem: 80 225<67.5 337.5 405 720> 530 67.5<67.5 337.5>
LayerCount: 2
Fore
SplineSet
80 0 m 1xec
 80 720 l 1
 305 720 l 1
 305 405 l 1
 597.5 405 l 1
 597.5 0 l 1
 80 0 l 1xec
305 337.5 m 1
 305 67.5 l 1
 530 67.5 l 1
 530 337.5 l 1
 305 337.5 l 1
EndSplineSet
Validated: 524289
EndChar

StartChar: comma
Encoding: 44 44 65
Width: 252
Flags: W
HStem: 0 135<80 172.5>
VStem: 80 92.5<0 135>
LayerCount: 2
Fore
SplineSet
80 135 m 5
 172.5 135 l 5
 172.5 0 l 1
 80 0 l 1
 80 135 l 5
EndSplineSet
Validated: 524289
EndChar

StartChar: parenright
Encoding: 41 41 66
Width: 662
Flags: W
HStem: 0 21G<80 305> 0 21G<80 305> 330 67.5<305 582.5> 700 20G<80 305> 700 20G<80 305>
VStem: 80 225<0 330 397.5 720>
LayerCount: 2
Fore
SplineSet
80 720 m 1xb4
 305 720 l 1
 305 397.5 l 1
 582.5 397.5 l 5
 582.5 330 l 5
 305 330 l 1
 305 0 l 1
 80 0 l 1
 80 720 l 1xb4
EndSplineSet
Validated: 524289
EndChar

StartChar: semicolon
Encoding: 59 59 68
Width: 632
Flags: W
HStem: 0 135<80 552.5> 292 67.5<285.5 552.5>
LayerCount: 2
Fore
SplineSet
80 135 m 1
 552.5 135 l 1
 552.5 0 l 1
 80 0 l 1
 80 135 l 1
552.5 359.5 m 5
 552.5 292 l 5
 285.5 292 l 5
 285.5 359.5 l 5
 552.5 359.5 l 5
EndSplineSet
Validated: 524289
EndChar

StartChar: question
Encoding: 63 63 69
Width: 1187
Flags: W
HStem: 0 67.5<705 1107> 652.5 67.5<80 480>
VStem: 480 225<67.5 652.5>
LayerCount: 2
Fore
SplineSet
1107 67.5 m 1
 1107 0 l 1
 480 0 l 1
 480 652.5 l 1
 80 652.5 l 1
 80 720 l 1
 705 720 l 5
 705 67.5 l 5
 1107 67.5 l 1
EndSplineSet
Validated: 524289
EndChar

StartChar: one
Encoding: 49 49 70
Width: 542
Flags: W
HStem: 0 21G<237.5 462.5> 0 21G<237.5 462.5> 700 20G<367 462.5> 700 20G<367 462.5>
VStem: 237.5 225<0 495>
LayerCount: 2
Fore
SplineSet
395 720 m 1xa8
 462.5 720 l 1
 462.5 0 l 1
 237.5 0 l 1
 237.5 495 l 1
 80 495 l 1
 395 720 l 1xa8
EndSplineSet
Validated: 524289
EndChar

StartChar: two
Encoding: 50 50 71
Width: 745
Flags: W
HStem: 0 67.5<147.5 665> 337.5 67.5<147.5 440> 652.5 67.5<80 440>
VStem: 80 67.5<67.5 337.5> 440 225<405 652.5>
LayerCount: 2
Fore
SplineSet
80 720 m 5
 665 720 l 5
 665 337.5 l 5
 147.5 337.5 l 5
 147.5 67.5 l 5
 665 67.5 l 5
 665 0 l 5
 80 0 l 5
 80 405 l 5
 440 405 l 5
 440 652.5 l 5
 80 652.5 l 5
 80 720 l 5
EndSplineSet
Validated: 524289
EndChar

StartChar: three
Encoding: 51 51 72
Width: 745
Flags: W
HStem: 0 67.5<80 440> 337.5 67.5<80 440> 652.5 67.5<80 440>
VStem: 440 225<67.5 337.5 405 652.5>
LayerCount: 2
Fore
SplineSet
80 720 m 5
 665 720 l 5
 665 0 l 5
 80 0 l 5
 80 67.5 l 5
 440 67.5 l 5
 440 337.5 l 5
 80 337.5 l 5
 80 405 l 5
 440 405 l 5
 440 652.5 l 5
 80 652.5 l 5
 80 720 l 5
EndSplineSet
Validated: 524289
EndChar

StartChar: four
Encoding: 52 52 73
Width: 610
Flags: W
HStem: 0 21G<462.5 530> 0 21G<462.5 530> 337.5 67.5<305 462.5> 700 20G<80 305> 700 20G<80 305>
VStem: 80 225<405 720> 462.5 67.5<0 337.5>
LayerCount: 2
Fore
SplineSet
80 720 m 5xb6
 305 720 l 5
 305 405 l 5
 530 405 l 5
 530 0 l 5
 462.5 0 l 5
 462.5 337.5 l 5
 80 337.5 l 5
 80 720 l 5xb6
EndSplineSet
Validated: 524289
EndChar

StartChar: five
Encoding: 53 53 74
Width: 745
Flags: W
HStem: 0 67.5<80 440> 652.5 67.5<147.5 665>
VStem: 80 67.5<337.5 652.5> 440 225<67.5 405>
LayerCount: 2
Fore
SplineSet
147.5 337.5 m 1
 80 337.5 l 1
 80 720 l 5
 665 720 l 1
 665 652.5 l 1
 147.5 652.5 l 1
 147.5 337.5 l 1
440 405 m 1
 665 405 l 1
 665 0 l 1
 80 0 l 1
 80 67.5 l 1
 440 67.5 l 1
 440 405 l 1
EndSplineSet
Validated: 524289
EndChar

StartChar: seven
Encoding: 55 55 75
Width: 610
Flags: W
HStem: 0 21G<305 530> 0 21G<305 530> 653 67<80 305>
VStem: 305 225<0 653>
LayerCount: 2
Fore
SplineSet
530 720 m 1xb0
 530 0 l 1
 305 0 l 1
 305 653 l 1
 80 653 l 1
 80 720 l 1
 530 720 l 1xb0
EndSplineSet
Validated: 1
EndChar

StartChar: eight
Encoding: 56 56 76
Width: 700
Flags: W
HStem: 0 67.5<147.5 395> 337.5 67.5<147.5 395> 652.5 67.5<147.5 395>
VStem: 80 67.5<67.5 337.5 405 652.5> 395 225<67.5 337.5 405 652.5>
LayerCount: 2
Fore
SplineSet
620 720 m 5
 620 0 l 5
 80 0 l 5
 80 720 l 5
 620 720 l 5
395 652.5 m 5
 147.5 652.5 l 5
 147.5 405 l 5
 395 405 l 5
 395 652.5 l 5
147.5 67.5 m 5
 395 67.5 l 5
 395 337.5 l 5
 147.5 337.5 l 5
 147.5 67.5 l 5
EndSplineSet
Validated: 524289
EndChar

StartChar: nine
Encoding: 57 57 77
Width: 677
Flags: W
HStem: 0 21G<372.5 597.5> 0 21G<372.5 597.5> 315 67.5<147.5 372.5> 652.5 67.5<147.5 372.5>
VStem: 80 67.5<382.5 652.5> 372.5 225<0 315 382.5 652.5>
LayerCount: 2
Fore
SplineSet
597.5 720 m 5xbc
 597.5 0 l 5
 372.5 0 l 5
 372.5 315 l 5
 80 315 l 5
 80 720 l 5
 597.5 720 l 5xbc
372.5 382.5 m 5
 372.5 652.5 l 5
 147.5 652.5 l 5
 147.5 382.5 l 5
 372.5 382.5 l 5
EndSplineSet
Validated: 524289
EndChar
